<svg xmlns="http://www.w3.org/2000/svg" xmlns:xlink="http://www.w3.org/1999/xlink" viewBox="0 0 81.89 72.87"><defs><style>.cls-1{fill:url(#linear-gradient);}</style><linearGradient id="linear-gradient" x1="272.18" y1="-159.54" x2="264.73" y2="-88.36" gradientTransform="translate(-218.9 177.37) rotate(-3.69)" gradientUnits="userSpaceOnUse"><stop offset="0" stop-color="#faca5f"/><stop offset="0.21" stop-color="#f9c65c"/><stop offset="0.4" stop-color="#f6bb53"/><stop offset="0.58" stop-color="#f1a944"/><stop offset="0.76" stop-color="#eb8f2f"/><stop offset="0.93" stop-color="#e26e14"/><stop offset="1" stop-color="#de5f08"/></linearGradient></defs><title>Asset 1</title><g id="Layer_2" data-name="Layer 2"><g id="Layer_1-2" data-name="Layer 1"><path class="cls-1" d="M79.69,42.74A4.82,4.82,0,0,1,76,41.32c-3.22-2.65-9.35-4.09-12.17-2.86-1.26.53-3.63.1-3.87-.71A10.4,10.4,0,0,1,61,31a38.88,38.88,0,0,0,1.88-5c.56-2.05.82-2.56,1.28-2.44s.68-.19.83-.93a5.12,5.12,0,0,1,.7-1.68c.38-.48,0-1.41-1.57-4.16l-2.08-3.54,1-2.92c1-3,.94-3.52-.29-2.64a18,18,0,0,1-3.39,1.36c-3.55,1.16-5.24.67-9.5-2.76-.44-.37-.71-.15-1.27,1.15a19,19,0,0,1-5.73,6.67,25.64,25.64,0,0,0-3.67,3.46c-1.47,1.76-2.29,2-3.25,1a41.39,41.39,0,0,1-4.7-7.82,4.41,4.41,0,0,0-1.63-2.26c-1.44-1-2.59-3.48-2.89-6.38L26.57,0,26,1.71c-1.12,3.39-1.6,4.09-3.81,5.4-2,1.13-2.26,1.47-2.7,3.09s-.64,1.9-3.83,3.74C12,16,11.29,16.09,9,14.32a4.12,4.12,0,0,0-1.47-.85c-.25.14,2,3.74,2.45,3.85A3.86,3.86,0,0,1,10.68,19a5.14,5.14,0,0,0,1.09,2.25,10.8,10.8,0,0,1,1.68,3,17.81,17.81,0,0,0,1.51,3c1,1.27,1,2.31,0,3.37a5.74,5.74,0,0,0-1.11,1.82c-.34,1.23-2.3,2-5.54,2.24-2.71.18-3.1.12-5.38-1a9.83,9.83,0,0,0-2.76-1c-.68.36.27,1.77,1.86,2.82a11.8,11.8,0,0,1,2.68,2.51,5.63,5.63,0,0,0,1.43,1.46A8.84,8.84,0,0,1,8,41.94c2,3.4,4.74,7.2,5.32,7.36,1,.27,5.73,4.45,7.33,6.49,2,2.59,3.48,3.88,4.72,4.22a2.58,2.58,0,0,1,1.16.74c1.63.07,1.91,1.16,2.5,2,.69-.64,1.56-.16,3.94,1.19,3.57,2,4.62,2.57,6.85,3.67a8.35,8.35,0,0,1,3.35,2.81c1.36,1.9,2.48,2.53,2.31,1.28-.21-1.67-.07-2,1.14-2.68s1.57-.61,4.3.2a12.18,12.18,0,0,1,4.6,2.15c2,1.61,2.78,1.87,2.7.94-.13-1.24,2.08-2.8,4.53-3.27A17,17,0,0,1,69.06,69c2.33.3,3.2-.34,1.59-1.15A13.47,13.47,0,0,1,65,62.08c-1.4-3.11-1.54-3.86-.87-4.8,1-1.36.61-2-1.38-2.44a6.19,6.19,0,0,1-3.46-2.09l-1.62-1.68,1.74.34a2.91,2.91,0,0,1,2.33,1.33c.55.9,1,1.09,2.48,1.29a3.65,3.65,0,0,1,2.67,1.18c.76.86,1,.93,2.63.83A42.4,42.4,0,0,1,74,55.88c3.24,0,3.89-.28,2.59-1s-1.46-1.67-.72-4.42a10.35,10.35,0,0,1,4.64-6.3c.83-.48,1.46-1,1.42-1.11A7.66,7.66,0,0,0,79.69,42.74Z"/></g></g></svg>